 <svg  version="1.0" xmlns="http://www.w3.org/2000/svg"  width="300.000000pt" height="333.000000pt" viewBox="0 0 300.000000 333.000000"  preserveAspectRatio="xMidYMid meet">  <g transform="translate(0.000000,333.000000) scale(0.100000,-0.100000)" fill="#ffc645" stroke="none"> <path d="M1247 2824 c-4 -4 -7 -16 -7 -26 0 -14 6 -19 23 -16 14 2 22 10 22 23 0 20 -25 32 -38 19z"/> <path d="M1811 2722 c-7 -13 -6 -23 1 -30 28 -28 63 3 38 33 -16 20 -27 19 -39 -3z"/> <path d="M1654 2686 c-7 -19 3 -36 22 -36 10 0 14 8 12 22 -4 26 -26 36 -34 14z"/> <path d="M1479 2669 c-18 -18 -19 -23 -6 -42 8 -12 22 -23 31 -25 42 -9 64 58 27 78 -26 13 -28 13 -52 -11z"/> <path d="M1135 2616 c-20 -15 -17 -44 7 -59 12 -8 21 -7 32 2 36 30 -1 85 -39 57z"/> <path d="M643 2609 c-4 -4 -32 -19 -60 -34 -41 -20 -53 -31 -53 -49 0 -20 16 -36 35 -36 14 0 35 35 30 51 -9 28 43 55 113 58 60 2 117 -16 161 -50 32 -25 51 -24 23 1 -40 37 -132 71 -189 69 -29 -1 -56 -6 -60 -10z"/> <path d="M1906 2610 c-83 -16 -90 -101 -14 -171 l33 -30 -30 12 c-16 7 -39 20 -50 29 -42 35 -161 117 -178 123 -27 10 -49 -5 -95 -66 l-41 -55 37 -29 c20 -17 101 -86 179 -154 104 -91 165 -136 230 -170 48 -25 136 -71 194 -102 l106 -57 36 53 c57 82 53 95 -50 168 -49 34 -107 77 -131 96 -24 20 -44 34 -46 32 -70 -98 -101 -139 -104 -139 -7 0 -210 142 -296 207 -108 82 -117 94 -92 122 11 12 16 21 12 21 -15 0 20 27 43 33 22 5 94 -29 102 -50 4 -9 97 -56 132 -67 21 -7 23 -34 2 -42 -8 -4 -15 -10 -15 -15 0 -6 -10 -23 -22 -39 -12 -16 -19 -32 -16 -35 3 -3 24 22 47 55 23 33 44 60 47 60 2 0 34 -21 71 -46 38 -26 85 -53 105 -60 21 -7 50 -23 66 -34 56 -42 132 3 132 77 0 27 -8 43 -34 69 -31 31 -40 35 -81 33 -26 -2 -61 -12 -83 -25 -20 -13 -49 -30 -63 -38 l-26 -15 18 37 c39 76 16 182 -45 207 -20 8 -37 14 -38 14 -2 -1 -21 -5 -42 -9z m70 -61 c14 -15 20 -40 22 -95 3 -45 0 -74 -6 -74 -12 0 -53 52 -76 97 -16 33 -21 74 -9 86 13 14 51 6 69 -14z m268 -191 c17 -28 -4 -53 -50 -56 -45 -3 -126 18 -131 35 -6 16 75 42 126 40 29 -1 48 -8 55 -19z m-104 -135 c20 -21 44 -43 51 -48 49 -35 105 -81 111 -90 14 -19 8 -44 -16 -71 l-23 -28 -69 34 c-79 38 -194 109 -194 118 0 4 13 21 28 37 16 17 30 35 32 40 5 12 33 45 38 45 3 0 21 -17 42 -37z"/> <path d="M1302 2568 l-21 -23 21 -55 c11 -30 28 -79 39 -107 10 -29 19 -65 19 -80 0 -16 4 -34 9 -42 12 -18 23 3 46 91 24 92 18 193 -14 219 -31 26 -73 24 -99 -3z m86 -20 c14 -14 16 -146 3 -167 -11 -17 -60 86 -68 142 -5 36 -4 37 24 37 16 0 34 -5 41 -12z"/> <path d="M2117 2554 c-11 -11 5 -34 24 -34 12 0 19 7 19 20 0 19 -28 28 -43 14z"/> <path d="M774 2516 c-20 -15 -14 -43 12 -53 20 -8 47 19 39 39 -9 23 -30 29 -51 14z"/> <path d="M1230 2421 c0 -26 17 -36 36 -21 11 10 12 16 3 26 -17 20 -39 17 -39 -5z"/> <path d="M1491 2381 c-15 -10 -8 -41 9 -41 15 0 25 29 14 40 -5 5 -15 5 -23 1z"/> <path d="M704 2365 c-4 -9 -2 -21 4 -27 15 -15 44 -1 40 19 -4 23 -36 29 -44 8z"/> <path d="M1003 2334 c-8 -21 16 -35 40 -23 14 8 16 13 6 25 -15 19 -38 18 -46 -2z"/> <path d="M1171 2337 c-6 -6 -11 -19 -11 -29 0 -16 -3 -17 -21 -8 -11 7 -27 9 -36 6 -22 -9 -11 -39 17 -47 25 -7 25 -7 -7 -19 -35 -13 -38 -17 -24 -39 8 -13 15 -12 50 3 34 16 39 22 31 37 -13 24 -13 29 4 29 7 0 16 -9 19 -20 5 -20 5 -20 41 1 39 22 41 26 27 48 -8 12 -13 12 -35 -2 l-26 -17 6 28 c6 32 -15 49 -35 29z"/> <path d="M858 2309 c-11 -6 -18 -22 -18 -39 0 -24 9 -35 53 -63 28 -18 67 -51 85 -71 18 -21 36 -36 39 -33 9 10 -27 118 -53 157 -14 20 -36 42 -50 49 -30 13 -34 13 -56 0z m71 -58 c27 -23 12 -36 -22 -20 -15 7 -23 17 -20 25 7 19 16 18 42 -5z"/> <path d="M1567 2304 c-24 -24 13 -72 42 -55 20 13 9 56 -14 59 -12 2 -24 0 -28 -4z"/> <path d="M445 2249 c-59 -29 -69 -43 -75 -108 -3 -33 -4 -58 -1 -55 2 2 12 -3 22 -12 22 -20 53 -15 57 10 5 24 -22 46 -48 39 -40 -11 -19 67 28 102 22 17 43 20 119 20 62 0 85 3 70 9 -45 17 -131 15 -172 -5z m-7 -157 c3 -9 -3 -13 -19 -10 -12 1 -24 9 -27 16 -3 9 3 13 19 10 12 -1 24 -9 27 -16z"/> <path d="M1240 2233 c-14 -9 -26 -17 -28 -18 -2 -2 24 -65 34 -83 4 -7 64 29 64 38 0 8 -39 80 -44 80 -1 0 -13 -8 -26 -17z"/> <path d="M1670 2224 c-11 -12 -10 -18 3 -31 22 -23 52 0 36 28 -12 23 -22 24 -39 3z"/> <path d="M2343 2214 c-3 -8 -1 -20 5 -26 16 -16 42 -2 42 22 0 24 -38 28 -47 4z"/> <path d="M1473 2213 c-7 -2 -13 -11 -13 -18 0 -8 -13 -15 -32 -17 -37 -3 -50 -35 -24 -57 12 -10 13 -17 4 -31 -19 -30 -2 -53 35 -47 20 3 38 -1 49 -10 25 -22 62 0 55 33 -3 17 1 28 15 35 26 14 20 53 -9 57 -14 2 -23 10 -23 21 0 31 -26 47 -57 34z m50 -69 c16 -22 16 -24 -5 -48 -18 -19 -29 -24 -50 -19 -25 5 -28 10 -28 43 0 21 5 40 10 42 30 10 57 3 73 -18z"/> <path d="M1155 2191 c-16 -9 -31 -17 -33 -18 -5 -2 38 -83 44 -83 3 0 18 7 34 15 l30 15 -22 43 c-12 23 -22 42 -22 43 -1 0 -14 -6 -31 -15z"/> <path d="M787 2166 c-8 -19 15 -37 32 -26 17 10 7 40 -13 40 -7 0 -16 -6 -19 -14z"/> <path d="M540 2130 c0 -15 5 -20 18 -18 9 2 17 10 17 18 0 8 -8 16 -17 18 -13 2 -18 -3 -18 -18z"/> <path d="M1766 2123 c-4 -4 -26 -8 -49 -8 -40 0 -42 -1 -42 -30 0 -16 -8 -41 -17 -54 -21 -29 -8 -61 23 -61 13 0 19 -5 16 -12 -3 -7 -12 -30 -21 -50 -21 -49 -15 -48 18 3 26 38 29 40 45 25 31 -28 71 -13 71 26 0 10 6 18 13 18 7 0 21 6 31 13 22 16 14 53 -12 61 -12 4 -17 16 -17 38 0 28 -4 33 -25 36 -14 2 -29 -1 -34 -5z m18 -85 c8 -13 7 -21 -5 -33 -27 -27 -67 4 -52 41 7 19 43 14 57 -8z"/> <path d="M665 2069 c-4 -5 -4 -21 -1 -34 4 -15 1 -25 -10 -29 -21 -8 -14 -48 12 -61 11 -5 28 -18 38 -28 10 -9 21 -17 26 -17 11 0 40 29 40 40 0 5 10 10 22 12 28 4 36 37 13 54 -10 8 -15 20 -12 29 15 36 -23 61 -51 33 -9 -9 -15 -9 -24 0 -15 15 -45 16 -53 1z m106 -51 c11 -27 10 -32 -16 -56 -18 -18 -29 -23 -32 -14 -3 6 -11 12 -18 12 -21 0 -27 16 -20 54 6 31 10 34 40 34 28 0 36 -5 46 -30z"/> <path d="M2451 2062 c-12 -23 1 -45 25 -40 23 4 31 37 12 49 -19 13 -26 11 -37 -9z"/> <path d="M886 2054 c-20 -19 -20 -29 0 -48 12 -12 20 -13 35 -6 21 12 25 40 7 58 -16 16 -23 15 -42 -4z"/> <path d="M1020 2031 c0 -25 19 -38 31 -20 12 19 6 33 -14 37 -11 2 -17 -3 -17 -17z"/> <path d="M1132 2020 c-40 -24 -43 -65 -8 -107 13 -15 44 -67 70 -115 l47 -86 32 9 c17 5 33 9 34 9 1 0 -2 -11 -7 -24 -7 -19 -4 -28 19 -50 34 -32 36 -32 66 0 l25 26 -21 29 c-11 16 -27 29 -34 29 -10 0 -13 12 -12 40 1 34 5 42 25 47 17 4 28 -1 40 -18 9 -13 16 -28 14 -32 -1 -4 4 -15 13 -23 13 -14 15 -12 15 15 0 59 -88 123 -106 76 -10 -26 -21 -17 -32 28 -14 53 -63 132 -94 148 -36 20 -51 20 -86 -1z m94 -42 c17 -18 39 -50 48 -72 20 -42 20 -41 -36 -71 -32 -18 -38 -18 -38 -4 0 6 -16 34 -35 63 -39 59 -44 90 -17 105 29 17 47 12 78 -21z m89 -168 c17 -18 17 -21 1 -45 -21 -32 -51 -32 -71 -1 -33 51 29 91 70 46z m49 -96 c20 -8 21 -38 1 -54 -12 -10 -18 -10 -30 0 -18 15 -20 46 -2 53 6 3 13 6 14 6 1 1 8 -2 17 -5z"/> <path d="M1947 2017 c-8 -21 8 -39 29 -35 27 5 25 42 -2 46 -12 2 -24 -3 -27 -11z"/> <path d="M1330 2005 c-19 -23 -8 -50 23 -53 24 -3 27 0 27 26 0 18 -6 32 -16 36 -21 8 -20 8 -34 -9z"/> <path d="M1445 1970 c-8 -14 3 -30 21 -30 8 0 14 9 14 20 0 21 -24 28 -35 10z"/> <path d="M956 1944 c-30 -29 -19 -60 32 -99 125 -96 232 -298 232 -437 0 -22 5 -40 13 -42 6 -2 64 -23 128 -46 l116 -42 119 43 c65 23 125 47 132 52 6 5 12 29 12 53 0 63 44 192 90 263 43 66 47 93 17 99 -27 5 -52 -22 -86 -93 -39 -81 -61 -172 -61 -257 l0 -68 -29 0 c-16 0 -63 -14 -105 -31 -72 -29 -81 -30 -124 -19 -26 6 -51 15 -57 20 -14 11 -112 40 -118 34 -2 -2 -7 35 -10 83 -11 159 -71 320 -159 424 -62 74 -110 95 -142 63z m112 -83 c45 -49 76 -100 66 -110 -4 -3 -9 0 -11 7 -5 12 -77 83 -122 119 -26 21 -21 46 7 36 9 -4 36 -27 60 -52z"/> <path d="M1543 1935 c-26 -18 -63 -112 -63 -161 0 -46 16 -35 24 17 7 43 39 113 56 124 22 14 40 -17 41 -69 0 -38 3 -46 9 -31 16 37 11 101 -8 118 -23 21 -32 21 -59 2z"/> <path d="M1863 1918 c-26 -29 -46 -68 -39 -75 3 -3 17 4 32 16 15 11 33 21 40 21 20 0 36 34 22 48 -18 18 -32 15 -55 -10z"/> <path d="M1971 1916 c-9 -10 -8 -16 4 -26 19 -16 41 1 32 24 -8 20 -21 20 -36 2z"/> <path d="M2141 1916 c-9 -10 -9 -16 -1 -21 8 -5 8 -11 -1 -21 -17 -20 -3 -47 21 -41 11 3 23 1 26 -4 3 -5 14 -9 25 -9 15 0 20 6 18 23 -2 12 0 28 4 35 11 17 0 32 -23 32 -10 0 -22 5 -25 10 -9 14 -31 12 -44 -4z"/> <path d="M2385 1920 c-3 -5 -14 -10 -25 -10 -19 0 -34 -23 -22 -35 4 -4 7 -19 7 -33 0 -21 5 -27 22 -27 12 0 25 -4 29 -8 13 -13 35 -7 41 11 3 9 13 25 21 34 12 14 12 21 2 33 -7 8 -16 13 -20 10 -4 -3 -10 4 -13 15 -5 21 -31 27 -42 10z m33 -57 c-5 -26 -38 -29 -38 -4 0 15 6 21 21 21 14 0 19 -5 17 -17z"/> <path d="M1385 1910 c-4 -7 -3 -16 3 -22 14 -14 45 -2 40 15 -6 16 -34 21 -43 7z"/> <path d="M794 1835 c-4 -10 -1 -21 7 -26 20 -12 34 -5 34 17 0 24 -33 31 -41 9z"/> <path d="M1658 1833 c-30 -36 -31 -44 -4 -33 19 7 26 6 26 -3 0 -6 7 -3 15 7 11 14 12 23 4 33 -15 17 -23 16 -41 -4z"/> <path d="M1904 1839 c-3 -6 -2 -15 4 -21 13 -13 32 -2 32 18 0 16 -26 19 -36 3z"/> <path d="M595 1831 c-22 -5 -29 -12 -27 -25 2 -9 -2 -23 -8 -30 -12 -15 12 -42 29 -32 5 3 11 -1 15 -9 7 -20 36 -19 36 0 0 8 6 15 14 15 21 0 28 16 17 37 -5 10 -12 26 -15 36 -6 18 -12 19 -61 8z"/> <path d="M1994 1820 c-34 -14 -118 -114 -157 -188 -32 -60 -76 -199 -77 -239 0 -8 7 -8 30 0 30 11 39 30 20 42 -12 8 -13 59 -1 83 5 9 17 35 27 56 40 83 60 116 99 160 43 50 90 75 107 58 17 -17 0 -46 -42 -72 -22 -14 -40 -27 -40 -30 0 -3 -17 -24 -38 -47 -52 -58 -77 -96 -74 -110 2 -7 -2 -13 -8 -13 -5 0 -10 -4 -10 -10 0 -21 16 -8 35 28 25 47 121 149 158 169 37 19 67 49 67 68 0 21 -36 55 -57 54 -10 0 -27 -4 -39 -9z"/> <path d="M898 1799 c-11 -6 -18 -22 -18 -39 0 -24 8 -35 43 -56 62 -39 134 -112 165 -168 17 -31 28 -43 30 -33 4 21 -38 93 -79 135 -27 27 -30 35 -18 43 8 5 19 9 24 9 13 0 67 -90 85 -140 6 -19 17 -45 23 -57 7 -17 7 -30 -1 -48 -7 -14 -12 -30 -12 -34 0 -11 48 -32 53 -23 9 15 -24 137 -52 199 -40 85 -85 146 -139 188 -46 36 -74 42 -104 24z m62 -34 c0 -9 9 -15 24 -15 28 0 47 -37 25 -51 -17 -10 -49 7 -49 26 0 9 -8 14 -22 12 -17 -1 -24 4 -26 21 -3 18 1 22 22 22 16 0 26 -6 26 -15z"/> <path d="M1726 1791 c-8 -12 1 -17 37 -19 19 -1 27 2 25 11 -6 15 -54 22 -62 8z"/> <path d="M1648 1769 c-21 -12 -24 -59 -6 -77 19 -19 66 -15 78 7 14 28 13 38 -10 61 -22 22 -37 24 -62 9z m50 -21 c19 -19 14 -35 -14 -41 -27 -5 -41 11 -30 38 7 18 28 19 44 3z"/> <path d="M2126 1725 c-3 -9 1 -18 10 -22 19 -7 39 11 30 26 -10 16 -33 13 -40 -4z"/> <path d="M2253 1724 c-7 -20 22 -45 43 -37 8 3 14 16 14 29 0 19 -5 24 -25 24 -15 0 -28 -7 -32 -16z"/> <path d="M784 1705 c-8 -19 12 -36 33 -28 19 7 12 37 -10 41 -9 2 -20 -4 -23 -13z"/> <path d="M895 1639 c-22 -5 -58 -12 -81 -17 l-41 -7 72 -67 c64 -59 84 -72 170 -103 54 -19 100 -34 102 -32 6 7 -28 80 -57 122 -35 51 -100 115 -114 114 -6 -1 -29 -5 -51 -10z m74 -29 c2 0 2 -3 -2 -6 -7 -8 17 -34 32 -34 10 0 56 -59 50 -64 -2 -2 -27 -7 -54 -10 -50 -7 -51 -7 -91 37 -23 25 -45 50 -48 56 -10 16 33 31 74 26 19 -2 37 -4 39 -5z"/> <path d="M1959 1613 c-52 -56 -87 -106 -109 -158 -11 -25 -18 -45 -17 -45 1 0 42 14 92 30 108 37 135 53 203 123 l53 53 -88 17 c-48 10 -90 17 -93 17 -3 0 -22 -17 -41 -37z m110 1 c43 -9 39 -29 -16 -80 -50 -47 -49 -47 -105 -38 -44 8 -46 14 -15 51 60 73 73 79 136 67z"/> <path d="M554 1625 c-7 -18 3 -35 21 -35 18 0 26 15 19 34 -8 20 -33 21 -40 1z"/> <path d="M1500 1620 c-14 -27 4 -52 34 -48 31 4 30 62 -1 66 -14 2 -26 -4 -33 -18z"/> <path d="M2414 1634 c-16 -7 -6 -41 13 -48 9 -4 21 -2 27 3 16 13 44 -10 57 -47 14 -41 -10 -99 -45 -108 -36 -9 -57 1 -49 22 4 12 3 15 -5 10 -17 -10 -15 -36 3 -42 44 -17 -9 -69 -75 -73 -13 -1 -13 -3 -1 -10 18 -12 68 12 94 45 10 13 30 29 45 36 34 17 65 77 56 112 -6 27 -81 107 -99 105 -5 0 -15 -3 -21 -5z"/> <path d="M2208 1550 c-41 -44 -49 -67 -20 -55 9 3 31 9 47 12 30 6 65 29 65 44 0 11 -30 39 -42 39 -6 0 -28 -18 -50 -40z"/> <path d="M1620 1565 c-7 -8 -18 -15 -26 -15 -7 0 -18 -9 -24 -20 -6 -11 -15 -18 -20 -15 -17 10 -52 -47 -45 -75 10 -38 45 -70 77 -70 33 0 68 47 68 93 0 15 7 30 15 33 19 8 19 51 1 70 -19 18 -30 18 -46 -1z m48 -33 c-4 -21 -38 -28 -49 -11 -4 7 -3 21 2 31 8 15 14 16 30 7 11 -5 19 -18 17 -27z m-60 -54 c21 -21 15 -68 -10 -77 -45 -17 -79 21 -60 65 13 26 49 33 70 12z"/> <path d="M654 1535 c-9 -37 10 -52 78 -58 52 -5 57 -4 49 11 -17 31 -66 68 -93 71 -22 2 -29 -3 -34 -24z"/> <path d="M1342 1487 c-29 -31 -28 -61 4 -86 25 -20 28 -20 55 -4 35 21 44 45 28 72 -10 16 -49 41 -63 41 -1 0 -12 -10 -24 -23z m63 -42 c0 -25 -4 -30 -24 -30 -32 0 -49 28 -31 50 7 9 23 15 34 13 16 -2 21 -10 21 -33z"/> <path d="M831 1369 c-40 -44 -72 -81 -70 -83 9 -8 121 -46 135 -46 26 0 4 21 -43 42 l-44 19 30 37 c16 20 40 47 54 60 l25 24 61 -18 c34 -9 64 -21 67 -25 3 -5 16 -9 30 -9 13 0 24 -4 24 -8 0 -5 19 -14 43 -21 23 -7 50 -17 59 -22 10 -5 24 -9 31 -9 7 0 35 -11 63 -23 59 -28 142 -52 151 -44 3 4 0 9 -8 12 -8 2 -85 32 -173 65 -87 33 -163 60 -168 60 -6 0 -24 6 -41 14 -56 24 -139 56 -146 55 -3 0 -39 -36 -80 -80z"/> <path d="M1985 1428 c-82 -33 -88 -35 -150 -56 -33 -11 -121 -44 -195 -72 -74 -29 -143 -53 -153 -54 -14 -2 -55 -46 -161 -173 -2 -3 -52 11 -76 21 -13 5 -15 -15 -12 -160 2 -92 1 -178 -3 -191 -5 -23 -8 -24 -23 -10 -28 24 -91 50 -107 43 -13 -5 -15 14 -15 139 0 90 -4 145 -10 145 -6 0 -10 -48 -10 -124 l0 -124 -37 10 c-78 21 -91 48 -98 200 -6 107 -5 109 15 103 22 -7 26 5 8 23 -25 25 6 32 60 14 42 -14 52 -21 52 -39 0 -15 -6 -23 -17 -23 -15 0 -14 -2 3 -15 29 -22 34 -18 34 28 l0 43 -90 35 -90 36 0 -183 c0 -218 -9 -203 160 -273 63 -27 135 -57 160 -68 25 -12 91 -40 148 -63 l103 -43 87 38 c48 20 132 56 187 80 55 24 135 58 179 76 117 50 116 48 116 260 0 99 -4 179 -8 179 -4 0 -12 -4 -17 -9 -6 -4 -43 -21 -82 -36 l-73 -28 -2 -191 c-3 -158 -5 -190 -17 -188 -20 4 -72 -17 -98 -41 -19 -17 -23 -18 -28 -5 -3 8 -5 94 -3 191 2 98 0 177 -3 177 -4 0 -24 -7 -45 -16 -38 -16 -39 -16 -59 9 -11 13 -41 49 -67 79 -27 30 -48 58 -48 62 0 3 9 6 21 6 24 0 296 99 384 140 74 34 125 44 145 27 26 -21 90 -97 90 -106 0 -5 -20 -17 -45 -27 -25 -9 -45 -21 -45 -25 0 -13 5 -12 81 13 l67 21 -76 84 c-42 46 -79 83 -82 82 -3 0 -27 -10 -55 -21z m-469 -271 c19 -20 34 -35 34 -32 0 3 17 -12 38 -34 33 -34 42 -39 75 -36 43 4 40 20 37 -185 -1 -108 -4 -127 -20 -142 -11 -10 -26 -18 -35 -18 -8 0 -15 -4 -15 -8 0 -5 -19 -15 -42 -22 -24 -7 -47 -17 -53 -22 -5 -4 -17 -8 -26 -8 -15 0 -18 9 -17 51 0 28 -3 53 -6 56 -3 4 -6 -24 -6 -60 0 -37 -4 -67 -8 -67 -5 0 -45 18 -90 40 -44 22 -85 40 -91 40 -6 0 -11 5 -11 11 0 5 -4 8 -9 5 -16 -10 -21 24 -21 156 0 112 2 129 15 124 8 -3 15 -1 15 4 0 6 -7 10 -15 10 -9 0 -15 9 -15 23 0 20 4 22 41 19 33 -4 45 0 69 23 27 26 47 23 29 -5 -5 -8 -9 -22 -9 -30 1 -8 22 28 47 80 26 52 49 88 51 80 3 -8 20 -32 38 -53z m490 8 c4 -8 1 -21 -5 -29 -9 -11 -8 -14 5 -12 14 1 16 -10 14 -89 -6 -165 -6 -166 -58 -192 -67 -34 -67 -35 -70 137 l-2 156 42 21 c52 26 67 28 74 8z"/> <path d="M1481 986 c-1 -104 2 -186 6 -182 10 9 12 327 2 351 -4 11 -8 -65 -8 -169z"/> <path d="M612 1231 c-19 -11 -11 -45 11 -49 9 -2 20 4 23 13 9 21 -16 47 -34 36z"/> <path d="M2164 1176 c-9 -23 -1 -48 18 -60 14 -8 22 -6 39 10 17 18 19 25 10 43 -13 24 -59 29 -67 7z"/> <path d="M730 1155 c-18 -22 -1 -50 31 -50 20 0 24 5 24 30 0 23 -5 31 -21 33 -11 2 -27 -4 -34 -13z"/> <path d="M1114 1071 c3 -5 27 -16 53 -25 26 -9 43 -12 38 -8 -15 14 -97 44 -91 33z"/> </g> </svg> 